<?xml version="1.0" encoding="UTF-8" standalone="no"?>
<!-- Designed by Vexels.com - 2020 All Rights Reserved - https://vexels.com/terms-and-conditions/  -->

<svg
   xmlns:dc="http://purl.org/dc/elements/1.1/"
   xmlns:cc="http://creativecommons.org/ns#"
   xmlns:rdf="http://www.w3.org/1999/02/22-rdf-syntax-ns#"
   xmlns:svg="http://www.w3.org/2000/svg"
   xmlns="http://www.w3.org/2000/svg"
   xmlns:sodipodi="http://sodipodi.sourceforge.net/DTD/sodipodi-0.dtd"
   xmlns:inkscape="http://www.inkscape.org/namespaces/inkscape"
   version="1.1"
   id="Layer_1"
   x="0px"
   y="0px"
   viewBox="0 0 1055.03 1100.001"
   enable-background="new 0 0 1200 1200"
   xml:space="preserve"
   sodipodi:docname="logo-homepage.svg"
   width="1055.03"
   height="1100.001"
   inkscape:version="0.92.5 (2060ec1f9f, 2020-04-08)"><metadata
   id="metadata31"><rdf:RDF><cc:Work
       rdf:about=""><dc:format>image/svg+xml</dc:format><dc:type
         rdf:resource="http://purl.org/dc/dcmitype/StillImage" /><dc:title></dc:title></cc:Work></rdf:RDF></metadata><defs
   id="defs29">
	
	
	
	
	
	
	
	
	
	
</defs><sodipodi:namedview
   pagecolor="#ffffff"
   bordercolor="#666666"
   borderopacity="1"
   objecttolerance="10"
   gridtolerance="10"
   guidetolerance="10"
   inkscape:pageopacity="0"
   inkscape:pageshadow="2"
   inkscape:window-width="1862"
   inkscape:window-height="1016"
   id="namedview27"
   showgrid="false"
   fit-margin-top="0"
   fit-margin-left="0"
   fit-margin-right="0"
   fit-margin-bottom="0"
   inkscape:zoom="0.19666667"
   inkscape:cx="527.515"
   inkscape:cy="550"
   inkscape:window-x="58"
   inkscape:window-y="27"
   inkscape:window-maximized="1"
   inkscape:current-layer="Layer_1" />
<path
   style="fill:none"
   inkscape:connector-curvature="0"
   id="path2"
   d="m 682.64,438.007 c -51.463,6.679 -103.472,10.118 -155.89,10.118 -0.15,0 -0.297,0 -0.447,0 -54.275,-0.02 -108.11,-3.714 -161.349,-10.892 -3.885,28.575 -6.088,58.456 -6.11,89.542 -0.028,41.704 3.199,80.57 8.768,116.641 52.372,-6.943 105.317,-10.523 158.687,-10.543 0.154,0 0.304,0 0.455,0 11.48,0 22.937,0.191 34.376,0.518 l -18.004,-80.139 c -7.343,-32.685 27.142,-58.861 56.648,-42.998 l 88.221,47.427 c 0.395,-10.118 0.601,-20.418 0.594,-30.906 -0.021,-30.823 -2.16,-60.447 -5.949,-88.768 z" /><path
   style="fill:none"
   inkscape:connector-curvature="0"
   id="path4"
   d="M 920.98,303.663 C 858.018,192.833 749.682,111.02 621.41,83.645 c 40.765,58.801 92.667,151.251 120.693,270.341 60.449,-11.782 120.259,-28.536 178.877,-50.323 z" /><path
   style="fill:none"
   inkscape:connector-curvature="0"
   id="path6"
   d="M 668.944,365.728 C 632.334,216.54 554.591,113.678 523.755,77.281 493.06,113.701 415.578,216.603 378.807,364.976 c 96.333,12.785 193.759,13.04 290.137,0.752 z" /><path
   style="fill:none"
   inkscape:connector-curvature="0"
   id="path8"
   d="m 382.595,715.525 c 38.541,146.181 113.184,233.834 141.096,262.68 15.874,-16.436 46.777,-51.748 77.348,-105.379 3.239,-5.682 6.53,-11.709 9.839,-18.004 L 577.755,707.389 c -65.102,-2.952 -130.372,-0.239 -195.16,8.136 z" /><path
   style="fill:none"
   inkscape:connector-curvature="0"
   id="path10"
   d="m 952.099,370.618 c -64.2,24.208 -129.86,42.831 -196.632,55.721 4.31,31.955 6.76,65.442 6.784,100.386 0.017,23.985 -0.964,47.098 -2.752,69.397 l 187.195,100.635 c 21.345,-52.524 33.136,-109.91 33.136,-170.008 0,-54.842 -9.8,-107.436 -27.731,-156.131 z" /><path
   style="fill:none"
   inkscape:connector-curvature="0"
   id="path12"
   d="m 285.182,526.722 c 0.024,-35.382 2.54,-69.267 6.953,-101.583 C 227.392,412.304 163.698,394.121 101.391,370.625 83.462,419.318 73.663,471.91 73.663,526.749 c 0,63.951 13.346,124.834 37.354,180.053 60.097,-22.086 121.457,-39.281 183.788,-51.49 -6.119,-39.797 -9.655,-82.639 -9.623,-128.59 z" /><path
   style="fill:none"
   inkscape:connector-curvature="0"
   id="path14"
   d="m 146.223,772.42 c 61.951,95.626 158.939,166.519 272.644,194.398 -37.801,-52.793 -82.555,-132.514 -109.503,-239.398 -55.061,10.836 -109.571,25.86 -163.141,45 z" /><path
   style="fill:none"
   inkscape:connector-curvature="0"
   id="path16"
   d="M 424.954,85.201 C 299.799,114.042 194.311,194.885 132.516,303.655 189.26,324.745 247.123,341.093 305.599,352.808 333.447,235.314 384.488,143.875 424.954,85.201 Z" /><path
   style="fill:#ffffff"
   inkscape:connector-curvature="0"
   id="path18"
   d="m 610.879,854.822 c -3.309,6.294 -6.6,12.322 -9.839,18.004 -30.571,53.631 -61.474,88.943 -77.348,105.379 C 495.78,949.36 421.136,861.706 382.596,715.525 447.384,707.15 512.654,704.437 577.755,707.389 L 561.13,633.391 c -11.439,-0.328 -22.896,-0.518 -34.376,-0.518 -0.15,0 -0.301,0 -0.455,0 -53.37,0.02 -106.315,3.601 -158.687,10.543 -5.569,-36.071 -8.796,-74.937 -8.768,-116.641 0.022,-31.086 2.225,-60.967 6.11,-89.542 53.239,7.178 107.074,10.872 161.349,10.892 0.15,0 0.297,0 0.447,0 52.418,0 104.427,-3.438 155.89,-10.118 3.789,28.321 5.928,57.944 5.948,88.768 0.008,10.487 -0.198,20.787 -0.594,30.906 l 71.504,38.44 c 1.788,-22.299 2.769,-45.412 2.752,-69.397 -0.023,-34.943 -2.473,-68.431 -6.784,-100.386 66.772,-12.889 132.432,-31.512 196.632,-55.721 17.931,48.695 27.73,101.289 27.73,156.131 0,60.097 -11.791,117.483 -33.136,170.008 l 65.21,35.056 c 26.755,-63.062 41.589,-132.359 41.589,-205.064 0,-285.833 -228.849,-519.222 -512.943,-526.567 -1.928,-0.187 -3.867,-0.196 -5.8,-0.079 C 532.082,0.062 529.42,0 526.745,0 c -4.302,0 -8.59,0.06 -12.867,0.163 -3.066,-0.284 -6.154,-0.149 -9.199,0.333 C 224.428,12.108 0,243.695 0,526.749 c 0,86.977 21.208,169.087 58.697,241.461 0.743,1.683 1.583,3.289 2.537,4.803 85.257,160.51 251.089,271.934 443.212,279.979 1.987,0.327 3.993,0.505 5.998,0.505 1.065,0 2.128,-0.075 3.189,-0.167 4.359,0.107 8.729,0.167 13.113,0.167 2.754,0 5.494,-0.062 8.238,-0.104 0.668,0.036 1.335,0.104 2.003,0.104 1.171,0 2.342,-0.068 3.51,-0.179 38.361,-0.988 75.701,-6.132 111.621,-14.935 z M 920.98,303.663 C 862.362,325.449 802.553,342.204 742.103,353.986 714.077,234.895 662.175,142.446 621.41,83.645 749.682,111.02 858.018,192.833 920.98,303.663 Z M 523.755,77.281 C 554.591,113.678 632.333,216.54 668.944,365.728 572.566,378.016 475.14,377.761 378.807,364.975 415.578,216.603 493.061,113.701 523.755,77.281 Z m -98.801,7.92 C 384.488,143.875 333.446,235.314 305.599,352.808 247.123,341.093 189.259,324.745 132.516,303.655 194.312,194.885 299.8,114.042 424.954,85.201 Z M 73.663,526.749 c 0,-54.839 9.799,-107.43 27.728,-156.124 62.306,23.496 126.001,41.679 190.744,54.514 -4.413,32.316 -6.928,66.202 -6.953,101.583 -0.032,45.951 3.504,88.792 9.624,128.589 -62.332,12.21 -123.691,29.404 -183.788,51.49 C 87.009,651.583 73.663,590.699 73.663,526.749 Z m 72.56,245.671 c 53.57,-19.14 108.079,-34.164 163.14,-45 26.948,106.884 71.702,186.606 109.503,239.398 C 305.162,938.939 208.174,868.046 146.223,772.42 Z" /><g
   id="g22"
   transform="translate(-72.485,-49.999)"
   style="fill:#ffffff">
		<polygon
   style="fill:#ffffff"
   id="polygon20"
   points="997.338,1150 1097.074,1076.198 980.109,918.132 1127.515,876.526 688.567,640.555 796.003,1118.727 880.15,991.633 " />
	</g>
</svg>